<svg id="Layer_1" data-name="Layer 1" xmlns="http://www.w3.org/2000/svg" viewBox="0 0 544.73 213"><path d="M398.25,0H360.74l-64.8,43.5V92.43c-11.22-14.91-28.38-24.19-48.62-25.53L289.62,0h-65.1l-54,87.3a116.1,116.1,0,0,0-11.22,23.32V61.8h-54V76.2c-6.6-10.5-22.2-17.4-39-17.4C29.4,58.8,0,93.6,0,135.9S29.4,213,66.3,213c17.1,0,32.7-6.9,39-17.4V210h54V163.62c11.18,28.56,39.92,49.38,73,49.38,42.3,0,77.7-34.5,77.7-75.6a78.36,78.36,0,0,0-6.45-31.92l38-27.48V210h56.71V54.9h75.38l-75,155.1h63.6l82.5-172.5V0ZM105.3,147.9c-5.1,7.8-14.4,13.8-26.7,13.8a25.8,25.8,0,0,1,0-51.6c12.3,0,21.6,6,26.7,14.1Zm127,10.8c-12.9,0-22.2-9.6-22.2-21.9,0-6,2.1-12.3,6-19.8a63.77,63.77,0,0,1,15.9-2.1c12.6,0,22.8,9.3,22.8,21.9C254.82,149.1,245.52,158.7,232.32,158.7Z"/></svg>